<svg version="1.2" xmlns="http://www.w3.org/2000/svg" viewBox="0 0 64 64" width="64" height="64">
	<title>cashapp</title>
	<style>
		.s0 { fill: #000000 } 
	</style>
	<path class="s0" d="m61 10.7q-0.5-1.3-1.2-2.5-0.8-1.2-1.8-2.2-1-1-2.1-1.7-1.2-0.8-2.5-1.2c-3.3-1.1-6.3-1.1-12.3-1.1h-18.2c-6 0-9 0-12.3 1q-1.3 0.5-2.4 1.2-1.2 0.8-2.2 1.8-1 1-1.7 2.2-0.8 1.1-1.3 2.4c-1 3.3-1 6.3-1 12.3v18.2c0 6 0 9 1 12.2q0.5 1.3 1.2 2.5 0.8 1.2 1.8 2.2 1 1 2.1 1.7 1.2 0.8 2.5 1.3c3.3 1 6.3 1 12.3 1h18.2c6 0 9 0 12.2-1q1.4-0.5 2.5-1.2 1.2-0.8 2.2-1.8 1-1 1.8-2.2 0.7-1.1 1.2-2.5c1-3.2 1-6.2 1-12.2v-18.1c0-6.1 0-9.1-1-12.3zm-15.4 11.6l-2.4 2.3q-0.1 0.1-0.4 0.2-0.2 0.1-0.4 0.1-0.2 0-0.4-0.1-0.3 0-0.4-0.2-0.9-0.7-1.8-1.3-1-0.5-2-0.9-1-0.4-2.1-0.6-1.1-0.1-2.2-0.1c-2.4 0-4.8 0.8-4.8 3 0 2.2 2.6 3 5.6 4.1 5.2 1.8 9.6 4 9.6 9.1 0 5.6-4.4 9.5-11.5 9.9l-0.6 3q-0.1 0.2-0.2 0.4-0.1 0.2-0.3 0.3-0.1 0.1-0.3 0.2-0.2 0.1-0.4 0.1h-4.5l-0.2-0.1q-0.3 0-0.5-0.2-0.2-0.1-0.3-0.3-0.2-0.2-0.2-0.5 0-0.2 0-0.4l0.7-3.2q-1-0.3-2-0.6-0.9-0.4-1.8-0.9-1-0.5-1.8-1.1-0.8-0.6-1.6-1.3v-0.1q-0.2-0.1-0.3-0.4 0-0.2 0-0.4 0-0.3 0-0.5 0.1-0.2 0.3-0.4l2.5-2.4q0.2-0.2 0.4-0.2 0.2-0.1 0.4-0.1 0.3 0 0.5 0.1 0.2 0 0.4 0.2c2.3 2.2 5.3 3.4 8.5 3.3 3.2 0 5.4-1.4 5.4-3.5 0-2.2-2.2-2.8-6.4-4.3-4.4-1.6-8.5-3.8-8.5-9 0-6.1 5-9 10.9-9.3l0.7-3.1q0-0.2 0.1-0.4 0.1-0.2 0.3-0.3 0.1-0.1 0.3-0.2 0.2-0.1 0.5-0.1h4.4l0.3 0.1c0.6 0.1 1 0.8 0.9 1.4l-0.7 3.4c2.3 0.8 4.4 2 6.2 3.5l0.1 0.1c0.4 0.5 0.4 1.2 0 1.7z"/>
</svg>