<svg version="1.2" xmlns="http://www.w3.org/2000/svg" viewBox="0 0 128 128" width="128" height="128"><style>.a{fill:#fff}</style><path fill-rule="evenodd" class="a" d="m10.8 24.1c17.7 4.8 35.5 0.3 53.2-4.2 19.3-5 38.7-9.9 58-2.7 3.8 1.4 6 5.2 6 9.2v69c0 5.3-5.7 8.8-10.8 7.4-17.7-4.9-35.5-0.3-53.2 4.2-19.3 4.9-38.7 9.9-58 2.7-3.8-1.4-6-5.2-6-9.2v-69c0-5.3 5.7-8.8 10.8-7.4zm71 39.3c0-11.8-8-21.3-17.8-21.3-9.8 0-17.8 9.5-17.8 21.3 0 11.8 8 21.4 17.8 21.4 9.8 0 17.8-9.6 17.8-21.4zm-67.6 35.7h14.2c0-7.9-6.3-14.3-14.2-14.3zm0-60.5v14.2c7.9 0 14.2-6.4 14.2-14.2zm85.4 49.8h14.2v-14.2c-7.8 0-14.2 6.4-14.2 14.2zm14.2-46.3v-14.2h-14.2c0 7.8 6.4 14.2 14.2 14.2z"/></svg>