<svg version="1.2" xmlns="http://www.w3.org/2000/svg" viewBox="0 0 64 64" width="64" height="64">
	<title>New Project</title>
	<style>
		.s0 { fill: #000000 } 
	</style>
	<path id="Background" fill-rule="evenodd" class="s0" d="m7.1 13.6c8.3 2.3 16.6 0.2 24.9-2 9.1-2.3 18.1-4.6 27.2-1.2 1.7 0.6 2.8 2.4 2.8 4.3v32.3c0 2.5-2.7 4.2-5.1 3.5-8.3-2.3-16.6-0.1-24.9 2-9.1 2.3-18.1 4.6-27.2 1.2-1.7-0.6-2.8-2.4-2.8-4.3v-32.3c0-2.5 2.7-4.2 5.1-3.5zm33.2 18.5c0-5.6-3.7-10.1-8.3-10.1-4.6 0-8.3 4.5-8.3 10.1 0 5.5 3.7 10 8.3 10 4.6 0 8.3-4.5 8.3-10zm-31.6 16.6h6.6c0-3.6-3-6.6-6.6-6.6zm0-28.4v6.7c3.6 0 6.6-3 6.6-6.7zm40 23.4h6.7v-6.7c-3.7 0-6.7 3-6.7 6.7zm6.7-21.7v-6.7h-6.7c0 3.7 3 6.7 6.7 6.7z"/>
</svg>