<svg version="1.2" xmlns="http://www.w3.org/2000/svg" viewBox="0 0 64 64" width="64" height="64">
	<title>New Project</title>
	<style>
		.s0 { fill: #000000 } 
	</style>
	<path id="Layer 1" fill-rule="evenodd" class="s0" d="m55.3 9c3.7 0 6.7 3 6.7 6.7v3.3h-60v-3.3c0-3.7 3-6.7 6.7-6.7zm6.6 40c0 3.7-3 6.7-6.6 6.7h-46.7c-3.7 0-6.7-3-6.7-6.7v-20h60zm-50-5c0 0.9 0.8 1.7 1.7 1.7h6.7c0.9 0 1.6-0.8 1.6-1.7 0-0.9-0.7-1.7-1.6-1.7h-6.7c-0.9 0-1.7 0.8-1.7 1.7zm15 1.7h13.4c0.9 0 1.6-0.8 1.6-1.7 0-0.9-0.7-1.7-1.6-1.7h-13.4c-0.9 0-1.6 0.8-1.6 1.7 0 0.9 0.7 1.7 1.6 1.7z"/>
</svg>