<svg version="1.2" xmlns="http://www.w3.org/2000/svg" viewBox="0 0 128 128" width="128" height="128"><style>.a{fill:#fff}</style><path fill-rule="evenodd" class="a" d="m113.8 14c7.8 0 14.2 6.4 14.2 14.2v7.1h-128v-7.1c0-7.8 6.4-14.2 14.2-14.2zm14.2 85.3c0 7.9-6.3 14.3-14.2 14.3h-99.5c-7.9 0-14.3-6.4-14.3-14.3v-42.6h128zm-106.6-10.7c0 2 1.6 3.6 3.5 3.6h14.3c1.9 0 3.5-1.6 3.5-3.6 0-2-1.6-3.6-3.5-3.6h-14.3c-1.9 0-3.5 1.6-3.5 3.6zm32 3.6h28.4c2 0 3.6-1.6 3.6-3.6 0-2-1.6-3.6-3.6-3.6h-28.4c-2 0-3.6 1.6-3.6 3.6 0 2 1.6 3.6 3.6 3.6z"/></svg>