<svg version="1.2" xmlns="http://www.w3.org/2000/svg" viewBox="0 0 128 128" width="128" height="128"><style>.a{fill:#fff}</style><path fill-rule="evenodd" class="a" d="m0 64c0-17 6.7-33.3 18.7-45.3 12-12 28.3-18.7 45.3-18.7 17 0 33.3 6.7 45.3 18.7 12 12 18.7 28.3 18.7 45.3 0 17-6.7 33.3-18.7 45.3-12 12-28.3 18.7-45.3 18.7-17 0-33.3-6.7-45.3-18.7-12-12-18.7-28.3-18.7-45.3zm99.8 32c-5.6-9.6-16-16-27.8-16h-16c-11.9 0-22.2 6.4-27.7 16 8.7 9.8 21.5 16 35.7 16 14.2 0 26.9-6.2 35.8-16zm-35.8-28c4.8 0 9.4-1.9 12.7-5.3 3.4-3.3 5.3-7.9 5.3-12.7 0-4.8-1.9-9.4-5.3-12.7-3.3-3.4-7.9-5.3-12.7-5.3-4.8 0-9.4 1.9-12.7 5.3-3.4 3.3-5.3 7.9-5.3 12.7 0 4.8 1.9 9.4 5.3 12.7 3.3 3.4 7.9 5.3 12.7 5.3z"/></svg>