<svg version="1.2" xmlns="http://www.w3.org/2000/svg" viewBox="0 0 128 128" width="128" height="128"><style>.a{fill:#fff}</style><path fill-rule="evenodd" class="a" d="m128 75.1c0 19-15.3 34.3-34.3 34.3h-2.3c-5 0-9.1-4.1-9.1-9.1 0-5.1 4.1-9.2 9.1-9.2h2.3c8.8 0 16-7.1 16-16v-2.2h-18.3c-10.1 0-18.3-8.2-18.3-18.3v-18.3c0-10.1 8.2-18.3 18.3-18.3h18.3c10.1 0 18.3 8.2 18.3 18.3zm-73.1 0c0 18.9-15.4 34.3-34.3 34.3h-2.3c-5.1 0-9.2-4.1-9.2-9.2 0-5 4.1-9.1 9.2-9.1h2.3c8.8 0 16-7.2 16-16v-2.3h-18.3c-10.1 0-18.3-8.2-18.3-18.3v-18.3c0-10.1 8.2-18.3 18.3-18.3h18.3c10.1 0 18.3 8.2 18.3 18.3z"/></svg>