<svg version="1.2" xmlns="http://www.w3.org/2000/svg" viewBox="0 0 64 64" width="64" height="64">
	<title>New Project</title>
	<style>
		.s0 { fill: #fccd02 } 
		.s1 { fill: #ffd72c } 
	</style>
	<path id="Shape 1 copy" class="s0" d="m35.2 5c-0.6-1.2-1.8-2-3.2-2-1.4 0-2.6 0.8-3.3 2l-7.2 14.9-16.2 2.4c-1.3 0.2-2.5 1.2-2.9 2.4-0.4 1.3-0.1 2.8 0.9 3.7l11.8 11.6-2.8 16.4c-0.2 1.4 0.3 2.8 1.4 3.6 1.1 0.8 2.6 0.9 3.8 0.2l14.5-7.7 14.5 7.7c1.2 0.7 2.7 0.6 3.8-0.2 1.1-0.8 1.6-2.2 1.4-3.6l-2.8-16.4 11.8-11.6c1-0.9 1.3-2.4 0.9-3.7-0.5-1.2-1.6-2.2-2.9-2.4l-16.2-2.4z"/>
	<path id="Shape 1" class="s1" d="m34.7 7.8c-0.5-1.1-1.7-1.8-2.9-1.8-1.3 0-2.4 0.7-2.9 1.8l-6.6 13.4-14.5 2.2c-1.3 0.2-2.3 1-2.6 2.2-0.4 1.1-0.1 2.4 0.8 3.3l10.5 10.4-2.5 14.8c-0.2 1.2 0.3 2.4 1.3 3.2 1 0.7 2.4 0.8 3.5 0.2l13-6.9 13 6.9c1.1 0.6 2.4 0.5 3.4-0.2 1-0.8 1.5-2 1.3-3.2l-2.5-14.8 10.6-10.4c0.9-0.9 1.2-2.2 0.8-3.3-0.4-1.2-1.4-2-2.6-2.2l-14.6-2.2z"/>
</svg>