<svg version="1.2" xmlns="http://www.w3.org/2000/svg" viewBox="0 0 64 64" width="128" height="128"><style>.a{fill:#fff}</style><path fill-rule="evenodd" class="a" d="m41.7 0c6.4 0 9.6 0 13.1 1.1q1.4 0.5 2.6 1.3 1.3 0.8 2.3 1.9 1.1 1 1.9 2.3 0.8 1.2 1.3 2.6c1.1 3.5 1.1 6.7 1.1 13.1v19.4c0 6.4 0 9.6-1.1 13.1q-0.5 1.4-1.3 2.6-0.8 1.3-1.9 2.3-1 1.1-2.3 1.9-1.2 0.8-2.6 1.3c-3.5 1.1-6.7 1.1-13.1 1.1h-19.4c-6.4 0-9.6 0-13.1-1.1q-1.4-0.5-2.6-1.3-1.3-0.8-2.3-1.9-1.1-1-1.9-2.3-0.8-1.2-1.3-2.6c-1.1-3.5-1.1-6.7-1.1-13.1v-19.4c0-6.4 0-9.6 1.1-13.1q0.5-1.4 1.3-2.6 0.8-1.3 1.9-2.3 1-1.1 2.3-1.9 1.2-0.8 2.6-1.3c3.5-1.1 6.7-1.1 13.1-1.1zm0.8 23.8c0.5 0.5 1.3 0.5 1.8 0l2.5-2.6c0.5-0.5 0.5-1.4-0.1-1.9q-0.7-0.7-1.5-1.2-0.8-0.6-1.7-1.1-0.8-0.5-1.7-0.9-0.9-0.4-1.8-0.7l0.8-3.8c0.1-0.8-0.5-1.6-1.3-1.6h-4.8q-0.3 0-0.5 0.1-0.2 0.1-0.4 0.2-0.1 0.2-0.3 0.4-0.1 0.1-0.1 0.4l-0.7 3.3c-6.5 0.4-11.9 3.6-11.9 10.3 0 5.8 4.5 8.3 9.3 10 4.5 1.8 6.9 2.4 6.9 4.8 0 2.5-2.4 4-5.9 4-3.2 0-6.6-1.1-9.2-3.7q-0.2-0.2-0.4-0.3-0.3-0.1-0.5-0.1-0.3 0-0.5 0.1-0.3 0.1-0.4 0.3l-2.7 2.7q-0.2 0.2-0.3 0.4-0.1 0.3-0.1 0.6 0 0.2 0.1 0.5 0.1 0.2 0.3 0.4c2.1 2.1 4.7 3.6 7.8 4.4l-0.8 3.6c-0.2 0.8 0.5 1.6 1.3 1.6h4.8q0.3 0 0.5 0 0.2-0.1 0.4-0.3 0.1-0.1 0.3-0.3 0.1-0.2 0.1-0.4l0.7-3.4c7.8-0.5 12.5-4.8 12.5-11 0-5.8-4.7-8.2-10.4-10.2-3.3-1.2-6.1-2-6.1-4.5 0-2.4 2.6-3.4 5.3-3.4 3.3 0 6.6 1.4 8.7 3.3z"/></svg>